<svg width="190" height="57" viewBox="0 0 190 57" fill="none" xmlns="http://www.w3.org/2000/svg">
<rect y="13" width="87" height="44" fill="#D9D9D9"/>
<rect x="8" y="20" width="70" height="30" fill="white"/>
<path d="M33.3081 39.0455V31.5455H34.1177V32.4119H34.2172C34.2787 32.3172 34.3639 32.1965 34.4728 32.0497C34.5841 31.9006 34.7427 31.768 34.9487 31.652C35.157 31.5336 35.4387 31.4744 35.7939 31.4744C36.2531 31.4744 36.658 31.5893 37.0083 31.8189C37.3587 32.0485 37.6322 32.3741 37.8287 32.7955C38.0252 33.2169 38.1234 33.714 38.1234 34.2869C38.1234 34.8646 38.0252 35.3653 37.8287 35.7891C37.6322 36.2105 37.3599 36.5372 37.0119 36.7692C36.6639 36.9988 36.2626 37.1136 35.8081 37.1136C35.4577 37.1136 35.1771 37.0556 34.9664 36.9396C34.7557 36.8213 34.5936 36.6875 34.4799 36.5384C34.3663 36.3868 34.2787 36.2614 34.2172 36.1619H34.1461V39.0455H33.3081ZM34.1319 34.2727C34.1319 34.6847 34.1923 35.0481 34.313 35.3629C34.4338 35.6754 34.6101 35.9205 34.8422 36.098C35.0742 36.2732 35.3583 36.3608 35.6944 36.3608C36.0448 36.3608 36.3372 36.2685 36.5716 36.0838C36.8083 35.8968 36.9859 35.6458 37.1042 35.331C37.225 35.0137 37.2853 34.661 37.2853 34.2727C37.2853 33.8892 37.2261 33.5436 37.1078 33.2358C36.9918 32.9257 36.8154 32.6806 36.5787 32.5007C36.3443 32.3184 36.0495 32.2273 35.6944 32.2273C35.3535 32.2273 35.0671 32.3137 34.835 32.4865C34.603 32.657 34.4279 32.8961 34.3095 33.2038C34.1911 33.5092 34.1319 33.8655 34.1319 34.2727ZM41.6177 37.1136C41.1253 37.1136 40.6932 36.9964 40.3216 36.7621C39.9522 36.5277 39.6634 36.1998 39.4551 35.7784C39.2491 35.357 39.1461 34.8646 39.1461 34.3011C39.1461 33.733 39.2491 33.237 39.4551 32.8132C39.6634 32.3894 39.9522 32.0604 40.3216 31.826C40.6932 31.5916 41.1253 31.4744 41.6177 31.4744C42.1101 31.4744 42.541 31.5916 42.9103 31.826C43.282 32.0604 43.5708 32.3894 43.7768 32.8132C43.9851 33.237 44.0893 33.733 44.0893 34.3011C44.0893 34.8646 43.9851 35.357 43.7768 35.7784C43.5708 36.1998 43.282 36.5277 42.9103 36.7621C42.541 36.9964 42.1101 37.1136 41.6177 37.1136ZM41.6177 36.3608C41.9918 36.3608 42.2995 36.2649 42.541 36.0732C42.7825 35.8814 42.9612 35.6293 43.0772 35.3168C43.1932 35.0043 43.2512 34.6657 43.2512 34.3011C43.2512 33.9366 43.1932 33.5968 43.0772 33.282C42.9612 32.9671 42.7825 32.7126 42.541 32.5185C42.2995 32.3243 41.9918 32.2273 41.6177 32.2273C41.2437 32.2273 40.9359 32.3243 40.6944 32.5185C40.4529 32.7126 40.2742 32.9671 40.1582 33.282C40.0422 33.5968 39.9842 33.9366 39.9842 34.3011C39.9842 34.6657 40.0422 35.0043 40.1582 35.3168C40.2742 35.6293 40.4529 35.8814 40.6944 36.0732C40.9359 36.2649 41.2437 36.3608 41.6177 36.3608ZM49.2322 32.767L48.4794 32.9801C48.4321 32.8546 48.3622 32.7327 48.2699 32.6143C48.1799 32.4936 48.0568 32.3942 47.9006 32.3161C47.7443 32.2379 47.5443 32.1989 47.3004 32.1989C46.9666 32.1989 46.6884 32.2758 46.4659 32.4297C46.2457 32.5812 46.1357 32.7741 46.1357 33.0085C46.1357 33.2169 46.2114 33.3814 46.3629 33.5021C46.5144 33.6229 46.7512 33.7235 47.0732 33.804L47.8828 34.0028C48.3705 34.1212 48.7339 34.3023 48.973 34.5462C49.2121 34.7876 49.3317 35.099 49.3317 35.4801C49.3317 35.7926 49.2417 36.072 49.0618 36.3182C48.8842 36.5644 48.6357 36.7585 48.3161 36.9006C47.9964 37.0426 47.6248 37.1136 47.201 37.1136C46.6446 37.1136 46.1842 36.9929 45.8196 36.7514C45.455 36.5099 45.2242 36.1572 45.1271 35.6932L45.9226 35.4943C45.9983 35.7879 46.1416 36.008 46.3523 36.1548C46.5653 36.3016 46.8435 36.375 47.1868 36.375C47.5774 36.375 47.8875 36.2921 48.1172 36.1264C48.3492 35.9583 48.4652 35.7571 48.4652 35.5227C48.4652 35.3333 48.3989 35.1747 48.2663 35.0469C48.1338 34.9167 47.9302 34.8196 47.6555 34.7557L46.7464 34.5426C46.2469 34.4242 45.88 34.2408 45.6456 33.9922C45.4136 33.7412 45.2976 33.4276 45.2976 33.0511C45.2976 32.7434 45.384 32.4711 45.5568 32.2344C45.732 31.9976 45.9699 31.8118 46.2706 31.6768C46.5736 31.5419 46.9169 31.4744 47.3004 31.4744C47.8402 31.4744 48.264 31.5928 48.5717 31.8295C48.8819 32.0663 49.102 32.3788 49.2322 32.767ZM52.9654 31.5455V32.2557H50.1387V31.5455H52.9654ZM50.9625 30.2386H51.8006V35.4375C51.8006 35.6742 51.8349 35.8518 51.9036 35.9702C51.9746 36.0862 52.0646 36.1643 52.1735 36.2045C52.2847 36.2424 52.4019 36.2614 52.525 36.2614C52.6174 36.2614 52.6931 36.2566 52.7523 36.2472C52.8115 36.2353 52.8588 36.2259 52.8944 36.2188L53.0648 36.9716C53.008 36.9929 52.9287 37.0142 52.8269 37.0355C52.7251 37.0592 52.5961 37.071 52.4398 37.071C52.2031 37.071 51.9711 37.0201 51.7438 36.9183C51.5189 36.8165 51.3319 36.6615 51.1827 36.4531C51.0359 36.2448 50.9625 35.982 50.9625 35.6648V30.2386Z" fill="black"/>
<path d="M14.5981 6.36364C14.5981 7.13068 14.4596 7.79356 14.1826 8.35227C13.9056 8.91098 13.5257 9.34186 13.0427 9.64489C12.5597 9.94792 12.0081 10.0994 11.3879 10.0994C10.7676 10.0994 10.216 9.94792 9.73304 9.64489C9.25009 9.34186 8.87012 8.91098 8.59313 8.35227C8.31614 7.79356 8.17765 7.13068 8.17765 6.36364C8.17765 5.59659 8.31614 4.93371 8.59313 4.375C8.87012 3.81629 9.25009 3.38542 9.73304 3.08239C10.216 2.77936 10.7676 2.62784 11.3879 2.62784C12.0081 2.62784 12.5597 2.77936 13.0427 3.08239C13.5257 3.38542 13.9056 3.81629 14.1826 4.375C14.4596 4.93371 14.5981 5.59659 14.5981 6.36364ZM13.7458 6.36364C13.7458 5.7339 13.6405 5.20241 13.4298 4.76918C13.2214 4.33594 12.9385 4.00805 12.5811 3.78551C12.2259 3.56297 11.8282 3.4517 11.3879 3.4517C10.9475 3.4517 10.5486 3.56297 10.1911 3.78551C9.83603 4.00805 9.55312 4.33594 9.34242 4.76918C9.13409 5.20241 9.02992 5.7339 9.02992 6.36364C9.02992 6.99337 9.13409 7.52486 9.34242 7.9581C9.55312 8.39134 9.83603 8.71922 10.1911 8.94176C10.5486 9.1643 10.9475 9.27557 11.3879 9.27557C11.8282 9.27557 12.2259 9.1643 12.5811 8.94176C12.9385 8.71922 13.2214 8.39134 13.4298 7.9581C13.6405 7.52486 13.7458 6.99337 13.7458 6.36364ZM15.9653 12.0455V4.54545H16.7749V5.41193H16.8744C16.9359 5.31723 17.0212 5.1965 17.1301 5.04972C17.2413 4.90057 17.3999 4.76799 17.6059 4.65199C17.8142 4.53362 18.096 4.47443 18.4511 4.47443C18.9104 4.47443 19.3152 4.58925 19.6656 4.81889C20.016 5.04853 20.2894 5.37405 20.4859 5.79545C20.6824 6.21686 20.7806 6.71402 20.7806 7.28693C20.7806 7.86458 20.6824 8.36529 20.4859 8.78906C20.2894 9.21046 20.0171 9.53717 19.6691 9.76918C19.3211 9.99882 18.9198 10.1136 18.4653 10.1136C18.1149 10.1136 17.8344 10.0556 17.6237 9.93963C17.413 9.82126 17.2508 9.6875 17.1372 9.53835C17.0235 9.38684 16.9359 9.26136 16.8744 9.16193H16.8034V12.0455H15.9653ZM16.7892 7.27273C16.7892 7.68466 16.8495 8.04806 16.9703 8.36293C17.091 8.67543 17.2674 8.92045 17.4994 9.09801C17.7314 9.2732 18.0155 9.3608 18.3517 9.3608C18.702 9.3608 18.9944 9.26847 19.2288 9.08381C19.4655 8.89678 19.6431 8.64583 19.7615 8.33097C19.8822 8.01373 19.9426 7.66098 19.9426 7.27273C19.9426 6.8892 19.8834 6.54356 19.765 6.2358C19.649 5.92566 19.4726 5.68063 19.2359 5.50071C19.0015 5.31842 18.7068 5.22727 18.3517 5.22727C18.0107 5.22727 17.7243 5.31368 17.4923 5.48651C17.2603 5.65696 17.0851 5.89607 16.9667 6.20384C16.8483 6.50923 16.7892 6.86553 16.7892 7.27273ZM24.4312 4.54545V5.25568H21.6045V4.54545H24.4312ZM22.4284 3.23864H23.2664V8.4375C23.2664 8.67424 23.3008 8.8518 23.3694 8.97017C23.4404 9.08617 23.5304 9.1643 23.6393 9.20455C23.7506 9.24242 23.8677 9.26136 23.9909 9.26136C24.0832 9.26136 24.1589 9.25663 24.2181 9.24716C24.2773 9.23532 24.3247 9.22585 24.3602 9.21875L24.5306 9.97159C24.4738 9.9929 24.3945 10.0142 24.2927 10.0355C24.1909 10.0592 24.0619 10.071 23.9056 10.071C23.6689 10.071 23.4369 10.0201 23.2096 9.91832C22.9847 9.81652 22.7977 9.66146 22.6485 9.45312C22.5017 9.24479 22.4284 8.98201 22.4284 8.66477V3.23864ZM25.6919 10V4.54545H26.5299V10H25.6919ZM26.118 3.63636C25.9546 3.63636 25.8138 3.58073 25.6954 3.46946C25.5794 3.35819 25.5214 3.22443 25.5214 3.06818C25.5214 2.91193 25.5794 2.77817 25.6954 2.6669C25.8138 2.55563 25.9546 2.5 26.118 2.5C26.2813 2.5 26.421 2.55563 26.537 2.6669C26.6554 2.77817 26.7146 2.91193 26.7146 3.06818C26.7146 3.22443 26.6554 3.35819 26.537 3.46946C26.421 3.58073 26.2813 3.63636 26.118 3.63636ZM30.2808 10.1136C29.7884 10.1136 29.3563 9.99645 28.9846 9.76207C28.6153 9.5277 28.3265 9.19981 28.1182 8.77841C27.9122 8.35701 27.8092 7.86458 27.8092 7.30114C27.8092 6.73295 27.9122 6.23698 28.1182 5.81321C28.3265 5.38944 28.6153 5.06037 28.9846 4.82599C29.3563 4.59162 29.7884 4.47443 30.2808 4.47443C30.7732 4.47443 31.2041 4.59162 31.5734 4.82599C31.9451 5.06037 32.2339 5.38944 32.4399 5.81321C32.6482 6.23698 32.7524 6.73295 32.7524 7.30114C32.7524 7.86458 32.6482 8.35701 32.4399 8.77841C32.2339 9.19981 31.9451 9.5277 31.5734 9.76207C31.2041 9.99645 30.7732 10.1136 30.2808 10.1136ZM30.2808 9.3608C30.6549 9.3608 30.9626 9.26491 31.2041 9.07315C31.4456 8.88139 31.6243 8.62926 31.7403 8.31676C31.8563 8.00426 31.9143 7.66572 31.9143 7.30114C31.9143 6.93655 31.8563 6.59683 31.7403 6.28196C31.6243 5.96709 31.4456 5.71259 31.2041 5.51847C30.9626 5.32434 30.6549 5.22727 30.2808 5.22727C29.9068 5.22727 29.599 5.32434 29.3575 5.51847C29.116 5.71259 28.9373 5.96709 28.8213 6.28196C28.7053 6.59683 28.6473 6.93655 28.6473 7.30114C28.6473 7.66572 28.7053 8.00426 28.8213 8.31676C28.9373 8.62926 29.116 8.88139 29.3575 9.07315C29.599 9.26491 29.9068 9.3608 30.2808 9.3608ZM34.8698 6.71875V10H34.0317V4.54545H34.8414V5.39773H34.9124C35.0402 5.12074 35.2343 4.8982 35.4948 4.73011C35.7552 4.55966 36.0914 4.47443 36.5033 4.47443C36.8726 4.47443 37.1958 4.55019 37.4727 4.7017C37.7497 4.85085 37.9652 5.07812 38.1191 5.38352C38.2729 5.68655 38.3499 6.07008 38.3499 6.53409V10H37.5118V6.59091C37.5118 6.16241 37.4005 5.8286 37.178 5.58949C36.9555 5.34801 36.6501 5.22727 36.2618 5.22727C35.9943 5.22727 35.7552 5.28527 35.5445 5.40128C35.3361 5.51728 35.1716 5.68655 35.0509 5.90909C34.9301 6.13163 34.8698 6.40152 34.8698 6.71875ZM41.4864 10.1278C41.1408 10.1278 40.8271 10.0627 40.5454 9.93253C40.2636 9.79995 40.0399 9.60938 39.8742 9.3608C39.7085 9.10985 39.6256 8.80682 39.6256 8.4517C39.6256 8.1392 39.6872 7.88589 39.8103 7.69176C39.9334 7.49527 40.0979 7.34138 40.3039 7.23011C40.5099 7.11884 40.7371 7.03598 40.9857 6.98153C41.2367 6.92472 41.4888 6.87973 41.7421 6.84659C42.0735 6.80398 42.3422 6.77202 42.5482 6.75071C42.7565 6.72704 42.9081 6.68797 43.0028 6.63352C43.0998 6.57907 43.1483 6.48437 43.1483 6.34943V6.32102C43.1483 5.97064 43.0525 5.69839 42.8607 5.50426C42.6713 5.31013 42.3837 5.21307 41.9978 5.21307C41.5977 5.21307 41.284 5.30066 41.0567 5.47585C40.8295 5.65104 40.6697 5.83807 40.5773 6.03693L39.7819 5.75284C39.9239 5.4214 40.1133 5.16335 40.3501 4.97869C40.5892 4.79167 40.8496 4.66146 41.1313 4.58807C41.4154 4.51231 41.6948 4.47443 41.9694 4.47443C42.1446 4.47443 42.3458 4.49574 42.5731 4.53835C42.8027 4.5786 43.0241 4.66264 43.2371 4.79048C43.4526 4.91832 43.6313 5.11127 43.7733 5.36932C43.9154 5.62737 43.9864 5.97301 43.9864 6.40625V10H43.1483V9.26136H43.1057C43.0489 9.37973 42.9542 9.50639 42.8216 9.64134C42.6891 9.77628 42.5127 9.8911 42.2925 9.9858C42.0724 10.0805 41.8037 10.1278 41.4864 10.1278ZM41.6143 9.375C41.9457 9.375 42.2251 9.3099 42.4523 9.17969C42.682 9.04948 42.8548 8.88139 42.9708 8.67543C43.0892 8.46946 43.1483 8.25284 43.1483 8.02557V7.25852C43.1128 7.30114 43.0347 7.3402 42.914 7.37571C42.7956 7.40885 42.6583 7.43845 42.502 7.46449C42.3482 7.48816 42.1978 7.50947 42.051 7.52841C41.9066 7.54498 41.7894 7.55919 41.6995 7.57102C41.4817 7.59943 41.2781 7.6456 41.0887 7.70952C40.9017 7.77107 40.7501 7.86458 40.6341 7.99006C40.5205 8.11316 40.4637 8.28125 40.4637 8.49432C40.4637 8.78551 40.5714 9.00568 40.7868 9.15483C41.0046 9.30161 41.2805 9.375 41.6143 9.375ZM46.3541 2.72727V10H45.5161V2.72727H46.3541ZM48.1306 7.44318V6.875L52.7045 4.54545V5.45455L49.1959 7.14489L49.2243 7.08807V7.23011L49.1959 7.1733L52.7045 8.86364V9.77273L48.1306 7.44318ZM54.5945 10V2.72727H57.0519C57.6225 2.72727 58.0889 2.83026 58.4511 3.03622C58.8157 3.23982 59.0856 3.51562 59.2607 3.86364C59.4359 4.21165 59.5235 4.59991 59.5235 5.02841C59.5235 5.45691 59.4359 5.84635 59.2607 6.19673C59.0879 6.54711 58.8204 6.82647 58.4582 7.0348C58.096 7.24077 57.632 7.34375 57.0661 7.34375H55.3048V6.5625H57.0377C57.4284 6.5625 57.742 6.49503 57.9788 6.36009C58.2155 6.22514 58.3872 6.04285 58.4937 5.81321C58.6026 5.5812 58.657 5.3196 58.657 5.02841C58.657 4.73722 58.6026 4.4768 58.4937 4.24716C58.3872 4.01752 58.2143 3.83759 57.9752 3.70739C57.7361 3.57481 57.4189 3.50852 57.0235 3.50852H55.4752V10H54.5945ZM62.9859 10.1136C62.4935 10.1136 62.0614 9.99645 61.6897 9.76207C61.3204 9.5277 61.0316 9.19981 60.8232 8.77841C60.6173 8.35701 60.5143 7.86458 60.5143 7.30114C60.5143 6.73295 60.6173 6.23698 60.8232 5.81321C61.0316 5.38944 61.3204 5.06037 61.6897 4.82599C62.0614 4.59162 62.4935 4.47443 62.9859 4.47443C63.4783 4.47443 63.9092 4.59162 64.2785 4.82599C64.6502 5.06037 64.939 5.38944 65.145 5.81321C65.3533 6.23698 65.4575 6.73295 65.4575 7.30114C65.4575 7.86458 65.3533 8.35701 65.145 8.77841C64.939 9.19981 64.6502 9.5277 64.2785 9.76207C63.9092 9.99645 63.4783 10.1136 62.9859 10.1136ZM62.9859 9.3608C63.3599 9.3608 63.6677 9.26491 63.9092 9.07315C64.1507 8.88139 64.3294 8.62926 64.4454 8.31676C64.5614 8.00426 64.6194 7.66572 64.6194 7.30114C64.6194 6.93655 64.5614 6.59683 64.4454 6.28196C64.3294 5.96709 64.1507 5.71259 63.9092 5.51847C63.6677 5.32434 63.3599 5.22727 62.9859 5.22727C62.6118 5.22727 62.3041 5.32434 62.0626 5.51847C61.8211 5.71259 61.6424 5.96709 61.5264 6.28196C61.4104 6.59683 61.3524 6.93655 61.3524 7.30114C61.3524 7.66572 61.4104 8.00426 61.5264 8.31676C61.6424 8.62926 61.8211 8.88139 62.0626 9.07315C62.3041 9.26491 62.6118 9.3608 62.9859 9.3608ZM70.6004 5.76705L69.8476 5.98011C69.8002 5.85464 69.7304 5.73272 69.6381 5.61435C69.5481 5.49361 69.425 5.39418 69.2687 5.31605C69.1125 5.23793 68.9124 5.19886 68.6686 5.19886C68.3348 5.19886 68.0566 5.2758 67.8341 5.42969C67.6139 5.5812 67.5038 5.77415 67.5038 6.00852C67.5038 6.21686 67.5796 6.38139 67.7311 6.50213C67.8826 6.62287 68.1193 6.72348 68.4413 6.80398L69.251 7.00284C69.7387 7.12121 70.1021 7.30232 70.3412 7.54616C70.5803 7.78764 70.6998 8.09896 70.6998 8.48011C70.6998 8.79261 70.6099 9.07197 70.43 9.31818C70.2524 9.56439 70.0038 9.75852 69.6842 9.90057C69.3646 10.0426 68.9929 10.1136 68.5692 10.1136C68.0128 10.1136 67.5523 9.9929 67.1878 9.75142C66.8232 9.50994 66.5924 9.1572 66.4953 8.69318L67.2907 8.49432C67.3665 8.78788 67.5097 9.00805 67.7204 9.15483C67.9335 9.30161 68.2117 9.375 68.555 9.375C68.9456 9.375 69.2557 9.29214 69.4854 9.12642C69.7174 8.95833 69.8334 8.7571 69.8334 8.52273C69.8334 8.33333 69.7671 8.17472 69.6345 8.04688C69.5019 7.91667 69.2983 7.8196 69.0237 7.75568L68.1146 7.54261C67.6151 7.42424 67.2481 7.24077 67.0138 6.99219C66.7818 6.74124 66.6657 6.42756 66.6657 6.05114C66.6657 5.74337 66.7522 5.47112 66.925 5.23438C67.1002 4.99763 67.3381 4.81179 67.6388 4.67685C67.9418 4.5419 68.2851 4.47443 68.6686 4.47443C69.2084 4.47443 69.6321 4.5928 69.9399 4.82955C70.25 5.06629 70.4702 5.37879 70.6004 5.76705ZM74.3335 4.54545V5.25568H71.5068V4.54545H74.3335ZM72.3307 3.23864H73.1688V8.4375C73.1688 8.67424 73.2031 8.8518 73.2718 8.97017C73.3428 9.08617 73.4327 9.1643 73.5416 9.20455C73.6529 9.24242 73.7701 9.26136 73.8932 9.26136C73.9855 9.26136 74.0613 9.25663 74.1205 9.24716C74.1797 9.23532 74.227 9.22585 74.2625 9.21875L74.433 9.97159C74.3762 9.9929 74.2968 10.0142 74.195 10.0355C74.0932 10.0592 73.9642 10.071 73.808 10.071C73.5712 10.071 73.3392 10.0201 73.1119 9.91832C72.887 9.81652 72.7 9.66146 72.5509 9.45312C72.4041 9.24479 72.3307 8.98201 72.3307 8.66477V3.23864ZM80.4095 7.44318L75.8357 9.77273V8.86364L79.3442 7.1733L79.3158 7.23011V7.08807L79.3442 7.14489L75.8357 5.45455V4.54545L80.4095 6.875V7.44318Z" fill="black"/>
<rect x="103" y="13" width="87" height="44" fill="#D9D9D9"/>
<path d="M114.844 6.36364C114.844 7.13068 114.706 7.79356 114.429 8.35227C114.152 8.91098 113.772 9.34186 113.289 9.64489C112.806 9.94792 112.254 10.0994 111.634 10.0994C111.014 10.0994 110.462 9.94792 109.979 9.64489C109.496 9.34186 109.116 8.91098 108.839 8.35227C108.562 7.79356 108.424 7.13068 108.424 6.36364C108.424 5.59659 108.562 4.93371 108.839 4.375C109.116 3.81629 109.496 3.38542 109.979 3.08239C110.462 2.77936 111.014 2.62784 111.634 2.62784C112.254 2.62784 112.806 2.77936 113.289 3.08239C113.772 3.38542 114.152 3.81629 114.429 4.375C114.706 4.93371 114.844 5.59659 114.844 6.36364ZM113.992 6.36364C113.992 5.7339 113.887 5.20241 113.676 4.76918C113.468 4.33594 113.185 4.00805 112.827 3.78551C112.472 3.56297 112.074 3.4517 111.634 3.4517C111.194 3.4517 110.795 3.56297 110.437 3.78551C110.082 4.00805 109.799 4.33594 109.589 4.76918C109.38 5.20241 109.276 5.7339 109.276 6.36364C109.276 6.99337 109.38 7.52486 109.589 7.9581C109.799 8.39134 110.082 8.71922 110.437 8.94176C110.795 9.1643 111.194 9.27557 111.634 9.27557C112.074 9.27557 112.472 9.1643 112.827 8.94176C113.185 8.71922 113.468 8.39134 113.676 7.9581C113.887 7.52486 113.992 6.99337 113.992 6.36364ZM116.211 12.0455V4.54545H117.021V5.41193H117.12C117.182 5.31723 117.267 5.1965 117.376 5.04972C117.487 4.90057 117.646 4.76799 117.852 4.65199C118.06 4.53362 118.342 4.47443 118.697 4.47443C119.156 4.47443 119.561 4.58925 119.912 4.81889C120.262 5.04853 120.535 5.37405 120.732 5.79545C120.928 6.21686 121.027 6.71402 121.027 7.28693C121.027 7.86458 120.928 8.36529 120.732 8.78906C120.535 9.21046 120.263 9.53717 119.915 9.76918C119.567 9.99882 119.166 10.1136 118.711 10.1136C118.361 10.1136 118.08 10.0556 117.87 9.93963C117.659 9.82126 117.497 9.6875 117.383 9.53835C117.27 9.38684 117.182 9.26136 117.12 9.16193H117.049V12.0455H116.211ZM117.035 7.27273C117.035 7.68466 117.096 8.04806 117.216 8.36293C117.337 8.67543 117.513 8.92045 117.745 9.09801C117.977 9.2732 118.262 9.3608 118.598 9.3608C118.948 9.3608 119.241 9.26847 119.475 9.08381C119.712 8.89678 119.889 8.64583 120.008 8.33097C120.128 8.01373 120.189 7.66098 120.189 7.27273C120.189 6.8892 120.129 6.54356 120.011 6.2358C119.895 5.92566 119.719 5.68063 119.482 5.50071C119.248 5.31842 118.953 5.22727 118.598 5.22727C118.257 5.22727 117.97 5.31368 117.738 5.48651C117.506 5.65696 117.331 5.89607 117.213 6.20384C117.094 6.50923 117.035 6.86553 117.035 7.27273ZM124.677 4.54545V5.25568H121.851V4.54545H124.677ZM122.674 3.23864H123.513V8.4375C123.513 8.67424 123.547 8.8518 123.616 8.97017C123.687 9.08617 123.776 9.1643 123.885 9.20455C123.997 9.24242 124.114 9.26136 124.237 9.26136C124.329 9.26136 124.405 9.25663 124.464 9.24716C124.523 9.23532 124.571 9.22585 124.606 9.21875L124.777 9.97159C124.72 9.9929 124.641 10.0142 124.539 10.0355C124.437 10.0592 124.308 10.071 124.152 10.071C123.915 10.071 123.683 10.0201 123.456 9.91832C123.231 9.81652 123.044 9.66146 122.895 9.45312C122.748 9.24479 122.674 8.98201 122.674 8.66477V3.23864ZM125.938 10V4.54545H126.776V10H125.938ZM126.364 3.63636C126.201 3.63636 126.06 3.58073 125.941 3.46946C125.825 3.35819 125.767 3.22443 125.767 3.06818C125.767 2.91193 125.825 2.77817 125.941 2.6669C126.06 2.55563 126.201 2.5 126.364 2.5C126.527 2.5 126.667 2.55563 126.783 2.6669C126.901 2.77817 126.961 2.91193 126.961 3.06818C126.961 3.22443 126.901 3.35819 126.783 3.46946C126.667 3.58073 126.527 3.63636 126.364 3.63636ZM130.527 10.1136C130.034 10.1136 129.602 9.99645 129.231 9.76207C128.861 9.5277 128.573 9.19981 128.364 8.77841C128.158 8.35701 128.055 7.86458 128.055 7.30114C128.055 6.73295 128.158 6.23698 128.364 5.81321C128.573 5.38944 128.861 5.06037 129.231 4.82599C129.602 4.59162 130.034 4.47443 130.527 4.47443C131.019 4.47443 131.45 4.59162 131.82 4.82599C132.191 5.06037 132.48 5.38944 132.686 5.81321C132.894 6.23698 132.998 6.73295 132.998 7.30114C132.998 7.86458 132.894 8.35701 132.686 8.77841C132.48 9.19981 132.191 9.5277 131.82 9.76207C131.45 9.99645 131.019 10.1136 130.527 10.1136ZM130.527 9.3608C130.901 9.3608 131.209 9.26491 131.45 9.07315C131.692 8.88139 131.87 8.62926 131.986 8.31676C132.102 8.00426 132.16 7.66572 132.16 7.30114C132.16 6.93655 132.102 6.59683 131.986 6.28196C131.87 5.96709 131.692 5.71259 131.45 5.51847C131.209 5.32434 130.901 5.22727 130.527 5.22727C130.153 5.22727 129.845 5.32434 129.604 5.51847C129.362 5.71259 129.183 5.96709 129.067 6.28196C128.951 6.59683 128.893 6.93655 128.893 7.30114C128.893 7.66572 128.951 8.00426 129.067 8.31676C129.183 8.62926 129.362 8.88139 129.604 9.07315C129.845 9.26491 130.153 9.3608 130.527 9.3608ZM135.116 6.71875V10H134.278V4.54545H135.087V5.39773H135.158C135.286 5.12074 135.48 4.8982 135.741 4.73011C136.001 4.55966 136.337 4.47443 136.749 4.47443C137.119 4.47443 137.442 4.55019 137.719 4.7017C137.996 4.85085 138.211 5.07812 138.365 5.38352C138.519 5.68655 138.596 6.07008 138.596 6.53409V10H137.758V6.59091C137.758 6.16241 137.647 5.8286 137.424 5.58949C137.202 5.34801 136.896 5.22727 136.508 5.22727C136.24 5.22727 136.001 5.28527 135.791 5.40128C135.582 5.51728 135.418 5.68655 135.297 5.90909C135.176 6.13163 135.116 6.40152 135.116 6.71875ZM141.733 10.1278C141.387 10.1278 141.073 10.0627 140.791 9.93253C140.51 9.79995 140.286 9.60938 140.12 9.3608C139.955 9.10985 139.872 8.80682 139.872 8.4517C139.872 8.1392 139.933 7.88589 140.056 7.69176C140.179 7.49527 140.344 7.34138 140.55 7.23011C140.756 7.11884 140.983 7.03598 141.232 6.98153C141.483 6.92472 141.735 6.87973 141.988 6.84659C142.32 6.80398 142.588 6.77202 142.794 6.75071C143.003 6.72704 143.154 6.68797 143.249 6.63352C143.346 6.57907 143.394 6.48437 143.394 6.34943V6.32102C143.394 5.97064 143.299 5.69839 143.107 5.50426C142.917 5.31013 142.63 5.21307 142.244 5.21307C141.844 5.21307 141.53 5.30066 141.303 5.47585C141.076 5.65104 140.916 5.83807 140.823 6.03693L140.028 5.75284C140.17 5.4214 140.359 5.16335 140.596 4.97869C140.835 4.79167 141.096 4.66146 141.377 4.58807C141.661 4.51231 141.941 4.47443 142.215 4.47443C142.391 4.47443 142.592 4.49574 142.819 4.53835C143.049 4.5786 143.27 4.66264 143.483 4.79048C143.699 4.91832 143.877 5.11127 144.019 5.36932C144.161 5.62737 144.233 5.97301 144.233 6.40625V10H143.394V9.26136H143.352C143.295 9.37973 143.2 9.50639 143.068 9.64134C142.935 9.77628 142.759 9.8911 142.539 9.9858C142.318 10.0805 142.05 10.1278 141.733 10.1278ZM141.86 9.375C142.192 9.375 142.471 9.3099 142.698 9.17969C142.928 9.04948 143.101 8.88139 143.217 8.67543C143.335 8.46946 143.394 8.25284 143.394 8.02557V7.25852C143.359 7.30114 143.281 7.3402 143.16 7.37571C143.042 7.40885 142.904 7.43845 142.748 7.46449C142.594 7.48816 142.444 7.50947 142.297 7.52841C142.153 7.54498 142.036 7.55919 141.946 7.57102C141.728 7.59943 141.524 7.6456 141.335 7.70952C141.148 7.77107 140.996 7.86458 140.88 7.99006C140.767 8.11316 140.71 8.28125 140.71 8.49432C140.71 8.78551 140.818 9.00568 141.033 9.15483C141.251 9.30161 141.527 9.375 141.86 9.375ZM146.6 2.72727V10H145.762V2.72727H146.6ZM148.746 10.0568C148.571 10.0568 148.42 9.99408 148.295 9.86861C148.17 9.74313 148.107 9.5928 148.107 9.41761C148.107 9.24242 148.17 9.09209 148.295 8.96662C148.42 8.84115 148.571 8.77841 148.746 8.77841C148.921 8.77841 149.072 8.84115 149.197 8.96662C149.322 9.09209 149.385 9.24242 149.385 9.41761C149.385 9.53362 149.356 9.64015 149.296 9.73722C149.24 9.83428 149.163 9.91241 149.066 9.97159C148.971 10.0284 148.864 10.0568 148.746 10.0568ZM153.176 10.1136C152.65 10.1136 152.197 9.99763 151.816 9.76562C151.437 9.53125 151.145 9.20455 150.939 8.78551C150.735 8.36411 150.633 7.87405 150.633 7.31534C150.633 6.75663 150.735 6.2642 150.939 5.83807C151.145 5.40956 151.431 5.07576 151.798 4.83665C152.168 4.59517 152.598 4.47443 153.091 4.47443C153.375 4.47443 153.655 4.52178 153.932 4.61648C154.209 4.71117 154.462 4.86506 154.689 5.07812C154.916 5.28883 155.097 5.56818 155.232 5.91619C155.367 6.2642 155.435 6.69271 155.435 7.2017V7.55682H151.23V6.83239H154.582C154.582 6.52462 154.521 6.25 154.398 6.00852C154.277 5.76705 154.104 5.57647 153.879 5.43679C153.657 5.29711 153.394 5.22727 153.091 5.22727C152.757 5.22727 152.468 5.31013 152.224 5.47585C151.983 5.6392 151.797 5.85227 151.667 6.11506C151.537 6.37784 151.472 6.65956 151.472 6.96023V7.44318C151.472 7.85511 151.543 8.20431 151.685 8.49077C151.829 8.77486 152.029 8.99148 152.285 9.14062C152.54 9.28741 152.838 9.3608 153.176 9.3608C153.396 9.3608 153.595 9.33002 153.773 9.26847C153.953 9.20455 154.108 9.10985 154.238 8.98438C154.368 8.85653 154.469 8.69792 154.54 8.50852L155.349 8.7358C155.264 9.01042 155.121 9.25189 154.92 9.46023C154.718 9.66619 154.47 9.82718 154.174 9.94318C153.878 10.0568 153.545 10.1136 153.176 10.1136ZM156.709 10V4.54545H157.519V5.39773H157.59C157.704 5.10653 157.887 4.88045 158.141 4.71946C158.394 4.55611 158.698 4.47443 159.053 4.47443C159.413 4.47443 159.713 4.55611 159.952 4.71946C160.193 4.88045 160.381 5.10653 160.516 5.39773H160.573C160.713 5.116 160.922 4.89228 161.202 4.72656C161.481 4.55848 161.816 4.47443 162.207 4.47443C162.694 4.47443 163.093 4.62713 163.403 4.93253C163.713 5.23556 163.869 5.70786 163.869 6.34943V10H163.03V6.34943C163.03 5.94697 162.92 5.65933 162.7 5.48651C162.48 5.31368 162.221 5.22727 161.922 5.22727C161.539 5.22727 161.242 5.34328 161.031 5.57528C160.82 5.80492 160.715 6.09612 160.715 6.44886V10H159.863V6.2642C159.863 5.95407 159.762 5.70431 159.561 5.51491C159.36 5.32315 159.101 5.22727 158.783 5.22727C158.565 5.22727 158.362 5.28527 158.172 5.40128C157.985 5.51728 157.834 5.67827 157.718 5.88423C157.604 6.08783 157.547 6.32339 157.547 6.59091V10H156.709ZM165.401 12.0455V4.54545H166.21V5.41193H166.31C166.371 5.31723 166.457 5.1965 166.566 5.04972C166.677 4.90057 166.835 4.76799 167.041 4.65199C167.25 4.53362 167.532 4.47443 167.887 4.47443C168.346 4.47443 168.751 4.58925 169.101 4.81889C169.451 5.04853 169.725 5.37405 169.921 5.79545C170.118 6.21686 170.216 6.71402 170.216 7.28693C170.216 7.86458 170.118 8.36529 169.921 8.78906C169.725 9.21046 169.453 9.53717 169.105 9.76918C168.757 9.99882 168.355 10.1136 167.901 10.1136C167.55 10.1136 167.27 10.0556 167.059 9.93963C166.849 9.82126 166.686 9.6875 166.573 9.53835C166.459 9.38684 166.371 9.26136 166.31 9.16193H166.239V12.0455H165.401ZM166.225 7.27273C166.225 7.68466 166.285 8.04806 166.406 8.36293C166.527 8.67543 166.703 8.92045 166.935 9.09801C167.167 9.2732 167.451 9.3608 167.787 9.3608C168.138 9.3608 168.43 9.26847 168.664 9.08381C168.901 8.89678 169.079 8.64583 169.197 8.33097C169.318 8.01373 169.378 7.66098 169.378 7.27273C169.378 6.8892 169.319 6.54356 169.201 6.2358C169.085 5.92566 168.908 5.68063 168.671 5.50071C168.437 5.31842 168.142 5.22727 167.787 5.22727C167.446 5.22727 167.16 5.31368 166.928 5.48651C166.696 5.65696 166.521 5.89607 166.402 6.20384C166.284 6.50923 166.225 6.86553 166.225 7.27273ZM173.867 4.54545V5.25568H171.04V4.54545H173.867ZM171.864 3.23864H172.702V8.4375C172.702 8.67424 172.736 8.8518 172.805 8.97017C172.876 9.08617 172.966 9.1643 173.075 9.20455C173.186 9.24242 173.303 9.26136 173.426 9.26136C173.519 9.26136 173.594 9.25663 173.654 9.24716C173.713 9.23532 173.76 9.22585 173.796 9.21875L173.966 9.97159C173.909 9.9929 173.83 10.0142 173.728 10.0355C173.626 10.0592 173.497 10.071 173.341 10.071C173.104 10.071 172.872 10.0201 172.645 9.91832C172.42 9.81652 172.233 9.66146 172.084 9.45312C171.937 9.24479 171.864 8.98201 171.864 8.66477V3.23864ZM175.667 12.0455C175.525 12.0455 175.398 12.0336 175.287 12.0099C175.176 11.9886 175.099 11.9673 175.056 11.946L175.269 11.2074C175.473 11.2595 175.653 11.2784 175.809 11.2642C175.965 11.25 176.104 11.1802 176.225 11.0547C176.348 10.9316 176.46 10.7315 176.562 10.4545L176.718 10.0284L174.701 4.54545H175.61L177.116 8.89205H177.173L178.679 4.54545H179.588L177.272 10.7955C177.168 11.0772 177.039 11.3104 176.885 11.495C176.731 11.6821 176.553 11.8205 176.349 11.9105C176.148 12.0005 175.92 12.0455 175.667 12.0455ZM180.992 6.93182C180.992 6.03693 181.108 5.21425 181.34 4.46378C181.574 3.71094 181.908 3.01847 182.342 2.38636H183.08C182.91 2.62074 182.75 2.90956 182.601 3.25284C182.454 3.59375 182.325 3.96899 182.214 4.37855C182.102 4.78575 182.015 5.20715 181.951 5.64276C181.889 6.07836 181.859 6.50805 181.859 6.93182C181.859 7.49527 181.913 8.067 182.022 8.64702C182.131 9.22704 182.278 9.76562 182.462 10.2628C182.647 10.7599 182.853 11.1648 183.08 11.4773H182.342C181.908 10.8452 181.574 10.1539 181.34 9.40341C181.108 8.65057 180.992 7.8267 180.992 6.93182ZM186.107 6.93182C186.107 7.8267 185.989 8.65057 185.755 9.40341C185.523 10.1539 185.19 10.8452 184.757 11.4773H184.019C184.189 11.2429 184.348 10.9541 184.494 10.6108C184.644 10.2699 184.774 9.89583 184.885 9.48864C184.996 9.07907 185.083 8.65649 185.144 8.22088C185.208 7.78291 185.24 7.35322 185.24 6.93182C185.24 6.36837 185.186 5.79664 185.077 5.21662C184.968 4.6366 184.821 4.09801 184.636 3.60085C184.452 3.10369 184.246 2.69886 184.019 2.38636H184.757C185.19 3.01847 185.523 3.71094 185.755 4.46378C185.989 5.21425 186.107 6.03693 186.107 6.93182Z" fill="black"/>
</svg>
