<svg width="151" height="224" viewBox="0 0 151 224" fill="none" xmlns="http://www.w3.org/2000/svg">
<path d="M0 0H151V224H0V0Z" fill="#EAEAEA"/>
<path d="M23.25 21.25H126.75V43.75H23.25V21.25Z" fill="#B2B2B2" stroke="black" stroke-width="0.5"/>
<path d="M23.25 75.25H126.75V97.75H23.25V75.25Z" fill="#B2B2B2" stroke="black" stroke-width="0.5"/>
<path d="M23.25 129.25H126.75V151.75H23.25V129.25Z" fill="#B2B2B2" stroke="black" stroke-width="0.5"/>
<path d="M73.4205 140.636C73.4205 141.557 73.2543 142.352 72.9219 143.023C72.5895 143.693 72.1335 144.21 71.554 144.574C70.9744 144.938 70.3125 145.119 69.5682 145.119C68.8239 145.119 68.1619 144.938 67.5824 144.574C67.0028 144.21 66.5469 143.693 66.2145 143.023C65.8821 142.352 65.7159 141.557 65.7159 140.636C65.7159 139.716 65.8821 138.92 66.2145 138.25C66.5469 137.58 67.0028 137.062 67.5824 136.699C68.1619 136.335 68.8239 136.153 69.5682 136.153C70.3125 136.153 70.9744 136.335 71.554 136.699C72.1335 137.062 72.5895 137.58 72.9219 138.25C73.2543 138.92 73.4205 139.716 73.4205 140.636ZM72.3977 140.636C72.3977 139.881 72.2713 139.243 72.0185 138.723C71.7685 138.203 71.429 137.81 71 137.543C70.5739 137.276 70.0966 137.142 69.5682 137.142C69.0398 137.142 68.5611 137.276 68.1321 137.543C67.706 137.81 67.3665 138.203 67.1136 138.723C66.8636 139.243 66.7386 139.881 66.7386 140.636C66.7386 141.392 66.8636 142.03 67.1136 142.55C67.3665 143.07 67.706 143.463 68.1321 143.73C68.5611 143.997 69.0398 144.131 69.5682 144.131C70.0966 144.131 70.5739 143.997 71 143.73C71.429 143.463 71.7685 143.07 72.0185 142.55C72.2713 142.03 72.3977 141.392 72.3977 140.636ZM79.9702 138.455C79.919 138.023 79.7116 137.688 79.348 137.449C78.9844 137.21 78.5384 137.091 78.0099 137.091C77.6236 137.091 77.2855 137.153 76.9957 137.278C76.7088 137.403 76.4844 137.575 76.3224 137.794C76.1634 138.013 76.0838 138.261 76.0838 138.54C76.0838 138.773 76.1392 138.973 76.25 139.141C76.3636 139.305 76.5085 139.443 76.6847 139.554C76.8608 139.662 77.0455 139.751 77.2386 139.822C77.4318 139.891 77.6094 139.946 77.7713 139.989L78.6577 140.227C78.8849 140.287 79.1378 140.369 79.4162 140.474C79.6974 140.58 79.9659 140.723 80.2216 140.905C80.4801 141.084 80.6932 141.314 80.8608 141.595C81.0284 141.876 81.1122 142.222 81.1122 142.631C81.1122 143.102 80.9886 143.528 80.7415 143.909C80.4972 144.29 80.1392 144.592 79.6676 144.817C79.1989 145.041 78.6293 145.153 77.9588 145.153C77.3338 145.153 76.7926 145.053 76.3352 144.851C75.8807 144.649 75.5227 144.368 75.2614 144.007C75.0028 143.646 74.8565 143.227 74.8224 142.75H75.9134C75.9418 143.08 76.0526 143.352 76.2457 143.568C76.4418 143.781 76.6889 143.94 76.9872 144.045C77.2884 144.148 77.6122 144.199 77.9588 144.199C78.3622 144.199 78.7244 144.134 79.0455 144.003C79.3665 143.869 79.6207 143.685 79.8082 143.449C79.9957 143.21 80.0895 142.932 80.0895 142.614C80.0895 142.324 80.0085 142.088 79.8466 141.906C79.6847 141.724 79.4716 141.577 79.2074 141.463C78.9432 141.349 78.6577 141.25 78.3509 141.165L77.277 140.858C76.5952 140.662 76.0554 140.382 75.6577 140.018C75.2599 139.655 75.0611 139.179 75.0611 138.591C75.0611 138.102 75.1932 137.676 75.4574 137.312C75.7244 136.946 76.0824 136.662 76.5312 136.46C76.983 136.256 77.4872 136.153 78.044 136.153C78.6065 136.153 79.1065 136.254 79.544 136.456C79.9815 136.655 80.3281 136.928 80.5838 137.274C80.8423 137.621 80.9787 138.014 80.9929 138.455H79.9702Z" fill="black"/>
<path d="M73.4205 198.636C73.4205 199.557 73.2543 200.352 72.9219 201.023C72.5895 201.693 72.1335 202.21 71.554 202.574C70.9744 202.938 70.3125 203.119 69.5682 203.119C68.8239 203.119 68.1619 202.938 67.5824 202.574C67.0028 202.21 66.5469 201.693 66.2145 201.023C65.8821 200.352 65.7159 199.557 65.7159 198.636C65.7159 197.716 65.8821 196.92 66.2145 196.25C66.5469 195.58 67.0028 195.062 67.5824 194.699C68.1619 194.335 68.8239 194.153 69.5682 194.153C70.3125 194.153 70.9744 194.335 71.554 194.699C72.1335 195.062 72.5895 195.58 72.9219 196.25C73.2543 196.92 73.4205 197.716 73.4205 198.636ZM72.3977 198.636C72.3977 197.881 72.2713 197.243 72.0185 196.723C71.7685 196.203 71.429 195.81 71 195.543C70.5739 195.276 70.0966 195.142 69.5682 195.142C69.0398 195.142 68.5611 195.276 68.1321 195.543C67.706 195.81 67.3665 196.203 67.1136 196.723C66.8636 197.243 66.7386 197.881 66.7386 198.636C66.7386 199.392 66.8636 200.03 67.1136 200.55C67.3665 201.07 67.706 201.463 68.1321 201.73C68.5611 201.997 69.0398 202.131 69.5682 202.131C70.0966 202.131 70.5739 201.997 71 201.73C71.429 201.463 71.7685 201.07 72.0185 200.55C72.2713 200.03 72.3977 199.392 72.3977 198.636ZM79.9702 196.455C79.919 196.023 79.7116 195.688 79.348 195.449C78.9844 195.21 78.5384 195.091 78.0099 195.091C77.6236 195.091 77.2855 195.153 76.9957 195.278C76.7088 195.403 76.4844 195.575 76.3224 195.794C76.1634 196.013 76.0838 196.261 76.0838 196.54C76.0838 196.773 76.1392 196.973 76.25 197.141C76.3636 197.305 76.5085 197.443 76.6847 197.554C76.8608 197.662 77.0455 197.751 77.2386 197.822C77.4318 197.891 77.6094 197.946 77.7713 197.989L78.6577 198.227C78.8849 198.287 79.1378 198.369 79.4162 198.474C79.6974 198.58 79.9659 198.723 80.2216 198.905C80.4801 199.084 80.6932 199.314 80.8608 199.595C81.0284 199.876 81.1122 200.222 81.1122 200.631C81.1122 201.102 80.9886 201.528 80.7415 201.909C80.4972 202.29 80.1392 202.592 79.6676 202.817C79.1989 203.041 78.6293 203.153 77.9588 203.153C77.3338 203.153 76.7926 203.053 76.3352 202.851C75.8807 202.649 75.5227 202.368 75.2614 202.007C75.0028 201.646 74.8565 201.227 74.8224 200.75H75.9134C75.9418 201.08 76.0526 201.352 76.2457 201.568C76.4418 201.781 76.6889 201.94 76.9872 202.045C77.2884 202.148 77.6122 202.199 77.9588 202.199C78.3622 202.199 78.7244 202.134 79.0455 202.003C79.3665 201.869 79.6207 201.685 79.8082 201.449C79.9957 201.21 80.0895 200.932 80.0895 200.614C80.0895 200.324 80.0085 200.088 79.8466 199.906C79.6847 199.724 79.4716 199.577 79.2074 199.463C78.9432 199.349 78.6577 199.25 78.3509 199.165L77.277 198.858C76.5952 198.662 76.0554 198.382 75.6577 198.018C75.2599 197.655 75.0611 197.179 75.0611 196.591C75.0611 196.102 75.1932 195.676 75.4574 195.312C75.7244 194.946 76.0824 194.662 76.5312 194.46C76.983 194.256 77.4872 194.153 78.044 194.153C78.6065 194.153 79.1065 194.254 79.544 194.456C79.9815 194.655 80.3281 194.928 80.5838 195.274C80.8423 195.621 80.9787 196.014 80.9929 196.455H79.9702Z" fill="black"/>
<path d="M25.25 183.25H128.75V205.75H25.25V183.25Z" fill="#B2B2B2" stroke="black" stroke-width="0.5"/>
<path d="M72.9162 67.9996L75.8494 63.0267L70.0761 62.9729L72.9162 67.9996ZM72.5839 49.9957L72.4581 63.4951L73.4581 63.5044L73.5838 50.005L72.5839 49.9957Z" fill="black"/>
<path d="M73 122.999L75.9332 118.026L70.16 117.973L73 122.999ZM72.6677 104.995L72.5419 118.495L73.5419 118.504L73.6676 105.005L72.6677 104.995Z" fill="black"/>
<path d="M73 175.999L75.9332 171.026L70.16 170.973L73 175.999ZM72.6677 157.995L72.5419 171.495L73.5419 171.504L73.6676 158.005L72.6677 157.995Z" fill="black"/>
<path d="M38.9205 30.4545H39.9261V37.4773C39.9261 37.8807 39.8565 38.2301 39.7173 38.5256C39.581 38.821 39.3736 39.0497 39.0952 39.2116C38.8196 39.3736 38.4716 39.4545 38.0511 39.4545C38.017 39.4545 37.983 39.4545 37.9489 39.4545C37.9148 39.4545 37.8807 39.4545 37.8466 39.4545V38.517C37.8807 38.517 37.9119 38.517 37.9403 38.517C37.9688 38.517 38 38.517 38.0341 38.517C38.3409 38.517 38.5653 38.4261 38.7074 38.2443C38.8494 38.0653 38.9205 37.8097 38.9205 37.4773V30.4545ZM39.4148 29.3636C39.2188 29.3636 39.0497 29.2969 38.9077 29.1634C38.7685 29.0298 38.6989 28.8693 38.6989 28.6818C38.6989 28.4943 38.7685 28.3338 38.9077 28.2003C39.0497 28.0668 39.2188 28 39.4148 28C39.6108 28 39.7784 28.0668 39.9176 28.2003C40.0597 28.3338 40.1307 28.4943 40.1307 28.6818C40.1307 28.8693 40.0597 29.0298 39.9176 29.1634C39.7784 29.2969 39.6108 29.3636 39.4148 29.3636ZM43.6942 37.1534C43.2795 37.1534 42.9031 37.0753 42.565 36.919C42.2269 36.7599 41.9585 36.5312 41.7596 36.233C41.5607 35.9318 41.4613 35.5682 41.4613 35.142C41.4613 34.767 41.5352 34.4631 41.6829 34.2301C41.8306 33.9943 42.0281 33.8097 42.2752 33.6761C42.5224 33.5426 42.7951 33.4432 43.0934 33.3778C43.3945 33.3097 43.6971 33.2557 44.0011 33.2159C44.3988 33.1648 44.7212 33.1264 44.9684 33.1009C45.2184 33.0724 45.4002 33.0256 45.5138 32.9602C45.6303 32.8949 45.6886 32.7812 45.6886 32.6193V32.5852C45.6886 32.1648 45.5735 31.8381 45.3434 31.6051C45.1161 31.3722 44.771 31.2557 44.3079 31.2557C43.8278 31.2557 43.4513 31.3608 43.1786 31.571C42.9059 31.7812 42.7141 32.0057 42.6033 32.2443L41.6488 31.9034C41.8192 31.5057 42.0465 31.196 42.3306 30.9744C42.6175 30.75 42.93 30.5937 43.2681 30.5057C43.609 30.4148 43.9442 30.3693 44.2738 30.3693C44.484 30.3693 44.7255 30.3949 44.9982 30.446C45.2738 30.4943 45.5394 30.5952 45.7951 30.7486C46.0536 30.902 46.2681 31.1335 46.4386 31.4432C46.609 31.7528 46.6942 32.1676 46.6942 32.6875V37H45.6886V36.1136H45.6374C45.5692 36.2557 45.4556 36.4077 45.2965 36.5696C45.1374 36.7315 44.9258 36.8693 44.6616 36.983C44.3974 37.0966 44.0749 37.1534 43.6942 37.1534ZM43.8477 36.25C44.2454 36.25 44.5806 36.1719 44.8533 36.0156C45.1289 35.8594 45.3363 35.6577 45.4755 35.4105C45.6175 35.1634 45.6886 34.9034 45.6886 34.6307V33.7102C45.646 33.7614 45.5522 33.8082 45.4073 33.8509C45.2653 33.8906 45.1005 33.9261 44.913 33.9574C44.7283 33.9858 44.5479 34.0114 44.3718 34.0341C44.1985 34.054 44.0579 34.071 43.9499 34.0852C43.6886 34.1193 43.4442 34.1747 43.217 34.2514C42.9925 34.3253 42.8107 34.4375 42.6715 34.5881C42.5352 34.7358 42.467 34.9375 42.467 35.1932C42.467 35.5426 42.5962 35.8068 42.8548 35.9858C43.1161 36.1619 43.4471 36.25 43.8477 36.25ZM53.6477 30.4545L51.2273 37H50.2045L47.7841 30.4545H48.875L50.6818 35.6705H50.75L52.5568 30.4545H53.6477ZM56.7021 37.1534C56.2873 37.1534 55.9109 37.0753 55.5728 36.919C55.2347 36.7599 54.9663 36.5312 54.7674 36.233C54.5685 35.9318 54.4691 35.5682 54.4691 35.142C54.4691 34.767 54.543 34.4631 54.6907 34.2301C54.8384 33.9943 55.0359 33.8097 55.283 33.6761C55.5302 33.5426 55.8029 33.4432 56.1012 33.3778C56.4023 33.3097 56.7049 33.2557 57.0089 33.2159C57.4066 33.1648 57.729 33.1264 57.9762 33.1009C58.2262 33.0724 58.408 33.0256 58.5217 32.9602C58.6381 32.8949 58.6964 32.7812 58.6964 32.6193V32.5852C58.6964 32.1648 58.5813 31.8381 58.3512 31.6051C58.1239 31.3722 57.7788 31.2557 57.3157 31.2557C56.8356 31.2557 56.4592 31.3608 56.1864 31.571C55.9137 31.7812 55.7219 32.0057 55.6112 32.2443L54.6566 31.9034C54.8271 31.5057 55.0543 31.196 55.3384 30.9744C55.6254 30.75 55.9379 30.5937 56.2759 30.5057C56.6168 30.4148 56.9521 30.3693 57.2816 30.3693C57.4918 30.3693 57.7333 30.3949 58.006 30.446C58.2816 30.4943 58.5472 30.5952 58.8029 30.7486C59.0614 30.902 59.2759 31.1335 59.4464 31.4432C59.6168 31.7528 59.7021 32.1676 59.7021 32.6875V37H58.6964V36.1136H58.6452C58.5771 36.2557 58.4634 36.4077 58.3043 36.5696C58.1452 36.7315 57.9336 36.8693 57.6694 36.983C57.4052 37.0966 57.0827 37.1534 56.7021 37.1534ZM56.8555 36.25C57.2532 36.25 57.5884 36.1719 57.8612 36.0156C58.1367 35.8594 58.3441 35.6577 58.4833 35.4105C58.6254 35.1634 58.6964 34.9034 58.6964 34.6307V33.7102C58.6538 33.7614 58.56 33.8082 58.4151 33.8509C58.2731 33.8906 58.1083 33.9261 57.9208 33.9574C57.7362 33.9858 57.5558 34.0114 57.3796 34.0341C57.2063 34.054 57.0657 34.071 56.9577 34.0852C56.6964 34.1193 56.4521 34.1747 56.2248 34.2514C56.0004 34.3253 55.8185 34.4375 55.6793 34.5881C55.543 34.7358 55.4748 34.9375 55.4748 35.1932C55.4748 35.5426 55.604 35.8068 55.8626 35.9858C56.1239 36.1619 56.4549 36.25 56.8555 36.25ZM64.9126 39.4545V30.4545H65.8842V31.4943H66.0036C66.0774 31.3807 66.1797 31.2358 66.3104 31.0597C66.4439 30.8807 66.6342 30.7216 66.8814 30.5824C67.1314 30.4403 67.4695 30.3693 67.8956 30.3693C68.4467 30.3693 68.9325 30.5071 69.353 30.7827C69.7734 31.0582 70.1016 31.4489 70.3374 31.9545C70.5732 32.4602 70.6911 33.0568 70.6911 33.7443C70.6911 34.4375 70.5732 35.0384 70.3374 35.5469C70.1016 36.0526 69.7749 36.4446 69.3572 36.723C68.9396 36.9986 68.4581 37.1364 67.9126 37.1364C67.4922 37.1364 67.1555 37.0668 66.9027 36.9276C66.6499 36.7855 66.4553 36.625 66.3189 36.446C66.1825 36.2642 66.0774 36.1136 66.0036 35.9943H65.9183V39.4545H64.9126ZM65.9013 33.7273C65.9013 34.2216 65.9737 34.6577 66.1186 35.0355C66.2635 35.4105 66.4751 35.7045 66.7536 35.9176C67.032 36.1278 67.3729 36.233 67.7763 36.233C68.1967 36.233 68.5476 36.1222 68.8288 35.9006C69.1129 35.6761 69.326 35.375 69.468 34.9972C69.6129 34.6165 69.6854 34.1932 69.6854 33.7273C69.6854 33.267 69.6143 32.8523 69.4723 32.483C69.3331 32.1108 69.1214 31.8168 68.8374 31.6009C68.5561 31.3821 68.2024 31.2727 67.7763 31.2727C67.3672 31.2727 67.0234 31.3764 66.745 31.5838C66.4666 31.7884 66.2564 32.0753 66.1143 32.4446C65.9723 32.8111 65.9013 33.2386 65.9013 33.7273ZM72.2251 37V30.4545H73.1967V31.4432H73.2649C73.3842 31.1193 73.6001 30.8565 73.9126 30.6548C74.2251 30.4531 74.5774 30.3523 74.9695 30.3523C75.0433 30.3523 75.1357 30.3537 75.2464 30.3565C75.3572 30.3594 75.4411 30.3636 75.4979 30.3693V31.392C75.4638 31.3835 75.3857 31.3707 75.2635 31.3537C75.1442 31.3338 75.0178 31.3239 74.8842 31.3239C74.5661 31.3239 74.282 31.3906 74.032 31.5241C73.7848 31.6548 73.5888 31.8366 73.4439 32.0696C73.3018 32.2997 73.2308 32.5625 73.2308 32.858V37H72.2251ZM79.1499 37.1364C78.5589 37.1364 78.0405 36.9957 77.5945 36.7145C77.1513 36.4332 76.8047 36.0398 76.5547 35.5341C76.3075 35.0284 76.1839 34.4375 76.1839 33.7614C76.1839 33.0795 76.3075 32.4844 76.5547 31.9759C76.8047 31.4673 77.1513 31.0724 77.5945 30.7912C78.0405 30.5099 78.5589 30.3693 79.1499 30.3693C79.7408 30.3693 80.2578 30.5099 80.701 30.7912C81.147 31.0724 81.4936 31.4673 81.7408 31.9759C81.9908 32.4844 82.1158 33.0795 82.1158 33.7614C82.1158 34.4375 81.9908 35.0284 81.7408 35.5341C81.4936 36.0398 81.147 36.4332 80.701 36.7145C80.2578 36.9957 79.7408 37.1364 79.1499 37.1364ZM79.1499 36.233C79.5987 36.233 79.968 36.1179 80.2578 35.8878C80.5476 35.6577 80.7621 35.3551 80.9013 34.9801C81.0405 34.6051 81.1101 34.1989 81.1101 33.7614C81.1101 33.3239 81.0405 32.9162 80.9013 32.5384C80.7621 32.1605 80.5476 31.8551 80.2578 31.6222C79.968 31.3892 79.5987 31.2727 79.1499 31.2727C78.701 31.2727 78.3317 31.3892 78.0419 31.6222C77.7521 31.8551 77.5376 32.1605 77.3984 32.5384C77.2592 32.9162 77.1896 33.3239 77.1896 33.7614C77.1896 34.1989 77.2592 34.6051 77.3984 34.9801C77.5376 35.3551 77.7521 35.6577 78.0419 35.8878C78.3317 36.1179 78.701 36.233 79.1499 36.233ZM86.293 39.5909C85.8072 39.5909 85.3896 39.5284 85.0401 39.4034C84.6907 39.2812 84.3995 39.1193 84.1665 38.9176C83.9364 38.7188 83.7532 38.5057 83.6168 38.2784L84.418 37.7159C84.5089 37.8352 84.6239 37.9716 84.7631 38.125C84.9023 38.2812 85.0927 38.4162 85.3342 38.5298C85.5785 38.6463 85.8981 38.7045 86.293 38.7045C86.8214 38.7045 87.2575 38.5767 87.6012 38.321C87.945 38.0653 88.1168 37.6648 88.1168 37.1193V35.7898H88.0316C87.9577 35.9091 87.8526 36.0568 87.7163 36.233C87.5827 36.4062 87.3896 36.5611 87.1367 36.6974C86.8867 36.831 86.5487 36.8977 86.1225 36.8977C85.5941 36.8977 85.1197 36.7727 84.6992 36.5227C84.2816 36.2727 83.9506 35.9091 83.7063 35.4318C83.4648 34.9545 83.3441 34.375 83.3441 33.6932C83.3441 33.0227 83.462 32.4389 83.6978 31.9418C83.9336 31.4418 84.2617 31.0554 84.6822 30.7827C85.1026 30.5071 85.5884 30.3693 86.1396 30.3693C86.5657 30.3693 86.9038 30.4403 87.1538 30.5824C87.4066 30.7216 87.5998 30.8807 87.7333 31.0597C87.8697 31.2358 87.9748 31.3807 88.0487 31.4943H88.1509V30.4545H89.1225V37.1875C89.1225 37.75 88.9947 38.2074 88.739 38.5597C88.4862 38.9148 88.1452 39.1747 87.7163 39.3395C87.2901 39.5071 86.8157 39.5909 86.293 39.5909ZM86.2589 35.9943C86.6623 35.9943 87.0032 35.902 87.2816 35.7173C87.56 35.5327 87.7717 35.267 87.9165 34.9205C88.0614 34.5739 88.1339 34.1591 88.1339 33.6761C88.1339 33.2045 88.0629 32.7884 87.9208 32.4276C87.7788 32.0668 87.5685 31.7841 87.2901 31.5795C87.0117 31.375 86.668 31.2727 86.2589 31.2727C85.8327 31.2727 85.4776 31.3807 85.1935 31.5966C84.9123 31.8125 84.7006 32.1023 84.5586 32.4659C84.4194 32.8295 84.3498 33.233 84.3498 33.6761C84.3498 34.1307 84.4208 34.5327 84.5629 34.8821C84.7077 35.2287 84.9208 35.5014 85.2021 35.7003C85.4862 35.8963 85.8384 35.9943 86.2589 35.9943ZM90.9634 37V30.4545H91.935V31.4432H92.0032C92.1225 31.1193 92.3384 30.8565 92.6509 30.6548C92.9634 30.4531 93.3157 30.3523 93.7077 30.3523C93.7816 30.3523 93.8739 30.3537 93.9847 30.3565C94.0955 30.3594 94.1793 30.3636 94.2362 30.3693V31.392C94.2021 31.3835 94.1239 31.3707 94.0018 31.3537C93.8825 31.3338 93.756 31.3239 93.6225 31.3239C93.3043 31.3239 93.0202 31.3906 92.7702 31.5241C92.5231 31.6548 92.3271 31.8366 92.1822 32.0696C92.0401 32.2997 91.9691 32.5625 91.9691 32.858V37H90.9634ZM97.3544 37.1534C96.9396 37.1534 96.5632 37.0753 96.2251 36.919C95.8871 36.7599 95.6186 36.5312 95.4197 36.233C95.2209 35.9318 95.1214 35.5682 95.1214 35.142C95.1214 34.767 95.1953 34.4631 95.343 34.2301C95.4908 33.9943 95.6882 33.8097 95.9354 33.6761C96.1825 33.5426 96.4553 33.4432 96.7536 33.3778C97.0547 33.3097 97.3572 33.2557 97.6612 33.2159C98.0589 33.1648 98.3814 33.1264 98.6286 33.1009C98.8786 33.0724 99.0604 33.0256 99.174 32.9602C99.2905 32.8949 99.3487 32.7812 99.3487 32.6193V32.5852C99.3487 32.1648 99.2337 31.8381 99.0036 31.6051C98.7763 31.3722 98.4311 31.2557 97.968 31.2557C97.4879 31.2557 97.1115 31.3608 96.8388 31.571C96.5661 31.7812 96.3743 32.0057 96.2635 32.2443L95.3089 31.9034C95.4794 31.5057 95.7067 31.196 95.9908 30.9744C96.2777 30.75 96.5902 30.5937 96.9283 30.5057C97.2692 30.4148 97.6044 30.3693 97.9339 30.3693C98.1442 30.3693 98.3857 30.3949 98.6584 30.446C98.9339 30.4943 99.1996 30.5952 99.4553 30.7486C99.7138 30.902 99.9283 31.1335 100.099 31.4432C100.269 31.7528 100.354 32.1676 100.354 32.6875V37H99.3487V36.1136H99.2976C99.2294 36.2557 99.1158 36.4077 98.9567 36.5696C98.7976 36.7315 98.5859 36.8693 98.3217 36.983C98.0575 37.0966 97.7351 37.1534 97.3544 37.1534ZM97.5078 36.25C97.9055 36.25 98.2408 36.1719 98.5135 36.0156C98.7891 35.8594 98.9964 35.6577 99.1357 35.4105C99.2777 35.1634 99.3487 34.9034 99.3487 34.6307V33.7102C99.3061 33.7614 99.2124 33.8082 99.0675 33.8509C98.9254 33.8906 98.7607 33.9261 98.5732 33.9574C98.3885 33.9858 98.2081 34.0114 98.032 34.0341C97.8587 34.054 97.718 34.071 97.6101 34.0852C97.3487 34.1193 97.1044 34.1747 96.8771 34.2514C96.6527 34.3253 96.4709 34.4375 96.3317 34.5881C96.1953 34.7358 96.1271 34.9375 96.1271 35.1932C96.1271 35.5426 96.2564 35.8068 96.5149 35.9858C96.7763 36.1619 97.1072 36.25 97.5078 36.25ZM102.19 37V30.4545H103.162V31.4773H103.247C103.383 31.1278 103.603 30.8565 103.907 30.6634C104.211 30.4673 104.576 30.3693 105.002 30.3693C105.434 30.3693 105.794 30.4673 106.081 30.6634C106.37 30.8565 106.596 31.1278 106.758 31.4773H106.826C106.994 31.1392 107.245 30.8707 107.581 30.6719C107.916 30.4702 108.318 30.3693 108.787 30.3693C109.372 30.3693 109.85 30.5526 110.223 30.919C110.595 31.2827 110.781 31.8494 110.781 32.6193V37H109.775V32.6193C109.775 32.1364 109.643 31.7912 109.379 31.5838C109.115 31.3764 108.804 31.2727 108.446 31.2727C107.985 31.2727 107.629 31.4119 107.376 31.6903C107.123 31.9659 106.997 32.3153 106.997 32.7386V37H105.974V32.517C105.974 32.1449 105.853 31.8452 105.612 31.6179C105.37 31.3878 105.059 31.2727 104.679 31.2727C104.417 31.2727 104.173 31.3423 103.946 31.4815C103.721 31.6207 103.539 31.8139 103.4 32.0611C103.264 32.3054 103.196 32.5881 103.196 32.9091V37H102.19Z" fill="black"/>
<path d="M65.3977 81.2727H66.4545V87.5114C66.4545 88.0682 66.3523 88.5412 66.1477 88.9304C65.9432 89.3196 65.6548 89.6151 65.2827 89.8168C64.9105 90.0185 64.4716 90.1193 63.9659 90.1193C63.4886 90.1193 63.0639 90.0327 62.6918 89.8594C62.3196 89.6832 62.027 89.4332 61.8139 89.1094C61.6009 88.7855 61.4943 88.4006 61.4943 87.9545H62.5341C62.5341 88.2017 62.5952 88.4176 62.7173 88.6023C62.8423 88.7841 63.0128 88.9261 63.2287 89.0284C63.4446 89.1307 63.6903 89.1818 63.9659 89.1818C64.2699 89.1818 64.5284 89.1179 64.7415 88.9901C64.9545 88.8622 65.1165 88.6747 65.2273 88.4276C65.3409 88.1776 65.3977 87.8722 65.3977 87.5114V81.2727ZM68.9304 81.2727L71.5213 88.6193H71.6236L74.2145 81.2727H75.3224L72.1179 90H71.027L67.8224 81.2727H68.9304ZM76.6818 81.2727H77.9432L80.9091 88.517H81.0114L83.9773 81.2727H85.2386V90H84.25V83.3693H84.1648L81.4375 90H80.483L77.7557 83.3693H77.6705V90H76.6818V81.2727Z" fill="black"/>
<path d="M48.0568 199V190.273H49.1136V194.159H53.767V190.273H54.8239V199H53.767V195.097H49.1136V199H48.0568ZM58.7294 199.153C58.3146 199.153 57.9382 199.075 57.6001 198.919C57.2621 198.76 56.9936 198.531 56.7947 198.233C56.5959 197.932 56.4964 197.568 56.4964 197.142C56.4964 196.767 56.5703 196.463 56.718 196.23C56.8658 195.994 57.0632 195.81 57.3104 195.676C57.5575 195.543 57.8303 195.443 58.1286 195.378C58.4297 195.31 58.7322 195.256 59.0362 195.216C59.4339 195.165 59.7564 195.126 60.0036 195.101C60.2536 195.072 60.4354 195.026 60.549 194.96C60.6655 194.895 60.7237 194.781 60.7237 194.619V194.585C60.7237 194.165 60.6087 193.838 60.3786 193.605C60.1513 193.372 59.8061 193.256 59.343 193.256C58.8629 193.256 58.4865 193.361 58.2138 193.571C57.9411 193.781 57.7493 194.006 57.6385 194.244L56.6839 193.903C56.8544 193.506 57.0817 193.196 57.3658 192.974C57.6527 192.75 57.9652 192.594 58.3033 192.506C58.6442 192.415 58.9794 192.369 59.3089 192.369C59.5192 192.369 59.7607 192.395 60.0334 192.446C60.3089 192.494 60.5746 192.595 60.8303 192.749C61.0888 192.902 61.3033 193.134 61.4737 193.443C61.6442 193.753 61.7294 194.168 61.7294 194.688V199H60.7237V198.114H60.6726C60.6044 198.256 60.4908 198.408 60.3317 198.57C60.1726 198.732 59.9609 198.869 59.6967 198.983C59.4325 199.097 59.1101 199.153 58.7294 199.153ZM58.8828 198.25C59.2805 198.25 59.6158 198.172 59.8885 198.016C60.1641 197.859 60.3714 197.658 60.5107 197.411C60.6527 197.163 60.7237 196.903 60.7237 196.631V195.71C60.6811 195.761 60.5874 195.808 60.4425 195.851C60.3004 195.891 60.1357 195.926 59.9482 195.957C59.7635 195.986 59.5831 196.011 59.407 196.034C59.2337 196.054 59.093 196.071 58.9851 196.085C58.7237 196.119 58.4794 196.175 58.2521 196.251C58.0277 196.325 57.8459 196.437 57.7067 196.588C57.5703 196.736 57.5021 196.937 57.5021 197.193C57.5021 197.543 57.6314 197.807 57.8899 197.986C58.1513 198.162 58.4822 198.25 58.8828 198.25ZM63.565 199V192.455H64.5366V193.443H64.6048C64.7241 193.119 64.94 192.857 65.2525 192.655C65.565 192.453 65.9173 192.352 66.3093 192.352C66.3832 192.352 66.4755 192.354 66.5863 192.357C66.6971 192.359 66.7809 192.364 66.8377 192.369V193.392C66.8036 193.384 66.7255 193.371 66.6033 193.354C66.484 193.334 66.3576 193.324 66.2241 193.324C65.9059 193.324 65.6218 193.391 65.3718 193.524C65.1246 193.655 64.9286 193.837 64.7837 194.07C64.6417 194.3 64.5707 194.562 64.5707 194.858V199H63.565ZM70.3022 199.136C69.7567 199.136 69.2752 198.999 68.8576 198.723C68.44 198.445 68.1133 198.053 67.8775 197.547C67.6417 197.038 67.5238 196.438 67.5238 195.744C67.5238 195.057 67.6417 194.46 67.8775 193.955C68.1133 193.449 68.4414 193.058 68.8619 192.783C69.2823 192.507 69.7681 192.369 70.3192 192.369C70.7454 192.369 71.082 192.44 71.3292 192.582C71.5792 192.722 71.7695 192.881 71.9002 193.06C72.0337 193.236 72.1374 193.381 72.2113 193.494H72.2965V190.273H73.3022V199H72.3306V197.994H72.2113C72.1374 198.114 72.0323 198.264 71.896 198.446C71.7596 198.625 71.565 198.786 71.3121 198.928C71.0593 199.067 70.7227 199.136 70.3022 199.136ZM70.4386 198.233C70.842 198.233 71.1829 198.128 71.4613 197.918C71.7397 197.705 71.9513 197.411 72.0962 197.036C72.2411 196.658 72.3136 196.222 72.3136 195.727C72.3136 195.239 72.2425 194.811 72.1005 194.445C71.9585 194.075 71.7482 193.788 71.4698 193.584C71.1914 193.376 70.8477 193.273 70.4386 193.273C70.0124 193.273 69.6573 193.382 69.3732 193.601C69.092 193.817 68.8803 194.111 68.7383 194.483C68.5991 194.852 68.5295 195.267 68.5295 195.727C68.5295 196.193 68.6005 196.616 68.7425 196.997C68.8874 197.375 69.1005 197.676 69.3817 197.901C69.6658 198.122 70.0181 198.233 70.4386 198.233ZM76.7667 199L74.7724 192.455H75.8292L77.244 197.466H77.3121L78.7099 192.455H79.7837L81.1644 197.449H81.2326L82.6474 192.455H83.7042L81.7099 199H80.7212L79.2894 193.972H79.1871L77.7553 199H76.7667ZM86.9599 199.153C86.5451 199.153 86.1687 199.075 85.8306 198.919C85.4925 198.76 85.2241 198.531 85.0252 198.233C84.8263 197.932 84.7269 197.568 84.7269 197.142C84.7269 196.767 84.8008 196.463 84.9485 196.23C85.0962 195.994 85.2937 195.81 85.5408 195.676C85.788 195.543 86.0607 195.443 86.359 195.378C86.6602 195.31 86.9627 195.256 87.2667 195.216C87.6644 195.165 87.9869 195.126 88.234 195.101C88.484 195.072 88.6658 195.026 88.7795 194.96C88.896 194.895 88.9542 194.781 88.9542 194.619V194.585C88.9542 194.165 88.8391 193.838 88.609 193.605C88.3817 193.372 88.0366 193.256 87.5735 193.256C87.0934 193.256 86.717 193.361 86.4442 193.571C86.1715 193.781 85.9798 194.006 85.869 194.244L84.9144 193.903C85.0849 193.506 85.3121 193.196 85.5962 192.974C85.8832 192.75 86.1957 192.594 86.5337 192.506C86.8746 192.415 87.2099 192.369 87.5394 192.369C87.7496 192.369 87.9911 192.395 88.2638 192.446C88.5394 192.494 88.805 192.595 89.0607 192.749C89.3192 192.902 89.5337 193.134 89.7042 193.443C89.8746 193.753 89.9599 194.168 89.9599 194.688V199H88.9542V198.114H88.9031C88.8349 198.256 88.7212 198.408 88.5621 198.57C88.4031 198.732 88.1914 198.869 87.9272 198.983C87.663 199.097 87.3406 199.153 86.9599 199.153ZM87.1133 198.25C87.511 198.25 87.8462 198.172 88.119 198.016C88.3945 197.859 88.6019 197.658 88.7411 197.411C88.8832 197.163 88.9542 196.903 88.9542 196.631V195.71C88.9116 195.761 88.8178 195.808 88.6729 195.851C88.5309 195.891 88.3661 195.926 88.1786 195.957C87.994 195.986 87.8136 196.011 87.6374 196.034C87.4641 196.054 87.3235 196.071 87.2156 196.085C86.9542 196.119 86.7099 196.175 86.4826 196.251C86.2582 196.325 86.0763 196.437 85.9371 196.588C85.8008 196.736 85.7326 196.937 85.7326 197.193C85.7326 197.543 85.8619 197.807 86.1204 197.986C86.3817 198.162 86.7127 198.25 87.1133 198.25ZM91.7955 199V192.455H92.767V193.443H92.8352C92.9545 193.119 93.1705 192.857 93.483 192.655C93.7955 192.453 94.1477 192.352 94.5398 192.352C94.6136 192.352 94.706 192.354 94.8168 192.357C94.9276 192.359 95.0114 192.364 95.0682 192.369V193.392C95.0341 193.384 94.956 193.371 94.8338 193.354C94.7145 193.334 94.5881 193.324 94.4545 193.324C94.1364 193.324 93.8523 193.391 93.6023 193.524C93.3551 193.655 93.1591 193.837 93.0142 194.07C92.8722 194.3 92.8011 194.562 92.8011 194.858V199H91.7955ZM98.8054 199.136C98.1747 199.136 97.6307 198.997 97.1733 198.719C96.7188 198.438 96.3679 198.045 96.1207 197.543C95.8764 197.037 95.7543 196.449 95.7543 195.778C95.7543 195.108 95.8764 194.517 96.1207 194.006C96.3679 193.491 96.7116 193.091 97.152 192.804C97.5952 192.514 98.1122 192.369 98.7031 192.369C99.044 192.369 99.3807 192.426 99.7131 192.54C100.045 192.653 100.348 192.838 100.621 193.094C100.893 193.347 101.111 193.682 101.273 194.099C101.435 194.517 101.516 195.031 101.516 195.642V196.068H96.4702V195.199H100.493C100.493 194.83 100.419 194.5 100.271 194.21C100.126 193.92 99.919 193.692 99.6491 193.524C99.3821 193.357 99.0668 193.273 98.7031 193.273C98.3026 193.273 97.956 193.372 97.6634 193.571C97.3736 193.767 97.1506 194.023 96.9943 194.338C96.8381 194.653 96.7599 194.991 96.7599 195.352V195.932C96.7599 196.426 96.8452 196.845 97.0156 197.189C97.1889 197.53 97.429 197.79 97.7358 197.969C98.0426 198.145 98.3991 198.233 98.8054 198.233C99.0696 198.233 99.3082 198.196 99.5213 198.122C99.7372 198.045 99.9233 197.932 100.08 197.781C100.236 197.628 100.357 197.437 100.442 197.21L101.413 197.483C101.311 197.812 101.139 198.102 100.898 198.352C100.656 198.599 100.358 198.793 100.003 198.932C99.6477 199.068 99.2486 199.136 98.8054 199.136Z" fill="black"/>
</svg>
